<svg version="1.1" id="Layer_1" xmlns="http://www.w3.org/2000/svg" xmlns:xlink="http://www.w3.org/1999/xlink" x="0px" y="0px"
	 width="100%" viewBox="0 0 383 548" enable-background="new 0 0 383 548" xml:space="preserve">
<path fill="#FA4545" opacity="0.7000000" stroke="none" 
	d="
M1.000000,146.000000 
	C1.000000,97.333336 1.000000,49.166668 1.000000,1.000000 
	C128.666672,1.000000 256.333344,1.000000 384.000000,1.000000 
	C384.000000,183.666672 384.000000,366.333344 384.000000,549.000000 
	C256.333344,549.000000 128.666672,549.000000 1.000000,549.000000 
	C1.000000,414.833344 1.000000,280.666656 1.000000,146.000000 
M47.567020,64.655670 
	C47.729408,67.980232 45.927242,68.823761 42.907616,68.738541 
	C37.442825,68.584328 31.970272,68.705833 26.500959,68.710831 
	C13.119548,68.723045 13.119631,68.722717 14.264407,81.989204 
	C14.278640,82.154152 14.210384,82.384750 14.296209,82.476044 
	C15.274183,83.516289 16.257442,85.400482 17.271919,85.420685 
	C24.213120,85.558907 31.162132,85.304817 39.009521,85.372688 
	C57.226517,85.372688 75.443512,85.372688 93.653015,85.372688 
	C93.653015,79.502708 93.653015,74.422562 93.653015,68.966789 
	C83.213058,68.966789 73.109520,68.966789 62.397743,68.396530 
	C61.951344,65.257805 61.504944,62.119083 61.200031,58.054535 
	C61.145550,51.035244 61.091068,44.015949 61.250725,36.404270 
	C61.835045,35.585091 62.419365,34.765907 63.932381,34.081360 
	C73.835976,34.081360 83.739578,34.081360 93.993576,34.081360 
	C93.993576,29.082050 93.882652,24.934679 94.033264,20.796827 
	C94.130821,18.116617 92.878464,17.248255 90.455368,17.306763 
	C85.301865,17.431204 80.147354,17.513659 74.079483,17.405703 
	C55.404751,17.474356 36.730022,17.543009 17.343836,17.411966 
	C14.437191,17.126268 14.000360,18.699602 14.422349,21.956627 
	C14.379702,24.278357 14.518636,26.620935 14.254998,28.917294 
	C13.769756,33.143890 15.594912,34.345226 19.650763,34.212112 
	C27.606808,33.950985 35.579403,34.238918 43.541744,34.101830 
	C46.555046,34.049942 47.731224,35.119282 47.606823,38.143700 
	C47.485001,41.105412 47.744904,44.082832 47.682117,47.970623 
	C47.721687,53.293186 47.761257,58.615749 47.567020,64.655670 
M108.956032,132.920288 
	C108.126564,141.756561 109.314690,150.107620 114.069038,157.873978 
	C121.679482,170.305862 143.039169,173.398529 151.021378,156.101746 
	C152.681961,152.503418 153.793610,148.635544 154.967865,144.833099 
	C156.438293,140.071579 157.546967,135.194321 159.120636,130.469894 
	C160.495987,126.340836 163.321838,123.731842 168.687378,124.048836 
	C175.676163,126.536331 176.739563,132.495926 176.661880,138.641632 
	C176.583145,144.869247 174.799622,150.472183 168.147308,153.128143 
	C166.838547,153.650665 164.987274,154.962509 164.902756,156.030350 
	C164.541733,160.591980 164.749054,165.198593 164.749054,170.019958 
	C175.248016,169.824127 182.525864,165.597733 186.841721,156.958252 
	C191.730774,147.171326 192.031982,136.747452 189.544556,126.296455 
	C187.803955,118.983208 184.429840,112.575005 176.343201,108.887466 
	C163.866776,104.001816 152.783463,108.011772 147.234268,120.065399 
	C144.828461,125.291130 143.760071,131.122787 141.941269,136.632034 
	C140.750320,140.239487 139.748825,144.022858 137.858200,147.257324 
	C135.476288,151.332275 130.626175,151.842819 127.016312,149.070755 
	C120.318985,143.927734 121.461113,128.756699 129.141174,125.300705 
	C132.483521,123.796654 133.315033,122.040779 132.773804,118.126968 
	C132.773804,114.875778 132.773804,111.624580 132.773804,108.419952 
	C120.312538,107.715477 110.529213,117.763367 108.956032,132.920288 
M136.915115,85.403252 
	C153.211899,85.458984 169.509018,85.474358 185.805161,85.607903 
	C188.715424,85.631760 189.838287,84.747322 189.934784,81.631264 
	C190.336029,68.672813 190.441177,68.678261 177.311188,68.688377 
	C170.575745,68.693565 163.840302,68.689293 156.959869,68.689293 
	C156.742172,64.880753 156.572784,61.917362 156.626587,58.171097 
	C156.663040,51.516514 156.797165,44.860378 156.691666,38.208046 
	C156.644302,35.220734 157.704758,34.010918 160.750732,34.133873 
	C165.070190,34.308247 169.401779,34.182983 173.728195,34.183895 
	C178.967239,34.185001 184.206284,34.184158 189.852264,34.184158 
	C189.852264,28.967125 190.084656,24.647129 189.696228,20.383692 
	C189.593353,19.254406 187.582932,17.401272 186.443161,17.397346 
	C165.983658,17.326904 145.523346,17.489805 124.145332,17.381298 
	C120.495674,17.345730 116.836464,17.149784 113.201797,17.366091 
	C112.012863,17.436848 109.938110,18.515253 109.888756,19.242765 
	C109.586540,23.697203 109.684937,28.185717 109.856384,32.654953 
	C109.873947,33.112694 111.257736,33.518024 112.936630,34.074757 
	C121.254204,34.101570 129.578201,34.331184 137.886612,34.068295 
	C141.945404,33.939869 143.024490,35.420670 142.908691,39.246971 
	C142.667221,47.225071 142.644699,55.220818 142.892899,63.198097 
	C143.018402,67.232315 141.838715,68.843445 137.590591,68.706985 
	C129.781052,68.456123 121.952560,68.584862 114.140137,68.823212 
	C112.684448,68.867622 110.097786,70.068359 110.025848,70.906494 
	C109.623154,75.598206 109.832039,80.342407 109.832039,85.193153 
	C119.110519,85.193153 127.555000,85.193153 136.915115,85.403252 
M83.640808,110.171997 
	C71.199005,103.277283 58.450653,106.993591 52.151123,119.574753 
	C50.537617,122.797173 49.676239,126.396187 48.195278,130.501587 
	C46.650082,135.701096 45.444584,141.036240 43.441761,146.053040 
	C42.078053,149.468964 38.982002,151.536880 35.008503,150.452179 
	C31.234316,149.421875 27.955282,147.645355 28.000322,142.864700 
	C28.031269,139.579956 27.875124,136.293427 28.074516,132.340469 
	C30.442009,129.766724 32.842018,127.221794 35.160431,124.604568 
	C36.045189,123.605782 37.346809,122.479439 37.418343,121.345596 
	C37.686802,117.090408 37.525898,112.808136 37.525898,108.606514 
	C24.825994,107.218781 14.371032,118.710258 13.524332,134.708389 
	C13.001328,142.837891 14.055723,150.642990 18.674536,157.582108 
	C23.580524,164.952667 30.414354,168.625107 39.406185,167.995407 
	C47.653385,167.417862 52.857872,162.695114 56.015568,155.529892 
	C57.679733,151.753677 58.744404,147.706207 59.980732,143.750275 
	C61.515163,138.840500 62.523407,133.717453 64.533379,129.017761 
	C66.906189,123.469650 72.441032,122.457184 76.847176,125.847488 
	C83.463631,130.938507 83.434509,150.602158 72.402443,153.264771 
	C71.239227,153.545517 69.542381,154.922089 69.477455,155.883743 
	C69.168747,160.456512 69.339363,165.061661 69.339363,170.078842 
	C77.787476,169.828461 84.396904,167.358002 89.077118,160.998260 
	C95.248390,152.612396 96.324524,142.952118 95.363396,132.949722 
	C94.513672,124.106766 92.170967,115.922432 83.640808,110.171997 
M14.683485,206.968292 
	C16.508068,207.403259 18.329943,208.202118 20.157665,208.215729 
	C34.970879,208.326065 49.786964,208.152557 64.598549,208.344818 
	C74.569794,208.474243 80.815887,215.030426 80.812126,224.781403 
	C80.808472,234.257462 74.166420,240.833389 64.297249,240.900848 
	C51.481228,240.988464 38.664181,240.926102 25.847574,240.928024 
	C22.223394,240.928558 18.599216,240.928116 14.704165,240.928116 
	C14.704165,246.829178 14.704165,252.197311 14.704165,257.712921 
	C33.408333,257.712921 51.701763,257.907257 69.987053,257.606506 
	C76.309883,257.502563 81.886543,254.539215 86.394135,250.009293 
	C92.726204,243.645828 95.041557,235.612640 95.652122,226.917953 
	C97.205627,204.795914 82.830360,189.694122 61.123421,191.393707 
	C46.894287,191.361710 32.664791,191.374939 18.436333,191.259781 
	C15.573201,191.236618 14.065370,192.041611 14.268719,195.181030 
	C14.503166,198.800598 14.516412,202.434479 14.683485,206.968292 
M261.928528,34.097279 
	C269.184204,34.097279 276.439880,34.097279 283.748840,34.097279 
	C283.748840,28.208157 283.748840,23.005873 283.748840,17.610420 
	C276.558197,17.610420 269.777374,17.610420 262.084839,17.388279 
	C248.075790,17.461504 234.066757,17.534727 219.140717,17.379988 
	C214.259567,17.379988 209.378418,17.379988 204.388840,17.379988 
	C204.388840,23.276634 204.388840,28.464703 204.388840,33.946659 
	C207.148880,33.946659 209.577164,33.946659 212.933350,34.084976 
	C220.856750,34.084976 228.780151,34.084976 236.819305,34.084976 
	C236.819305,45.987705 236.819305,57.043209 236.819305,68.895828 
	C225.802628,68.895828 215.117081,68.895828 204.406250,68.895828 
	C204.406250,74.769997 204.406250,79.840012 204.406250,85.143127 
	C231.071487,85.143127 257.411224,85.143127 283.745605,85.143127 
	C283.745605,79.505157 283.745605,74.287521 283.745605,68.522797 
	C272.736389,68.522797 262.155060,68.522797 251.385361,68.522797 
	C251.385361,56.906612 251.385361,45.855080 251.385361,34.440956 
	C254.782516,34.265537 257.892365,34.104954 261.928528,34.097279 
M136.119080,191.388458 
	C131.498779,191.355865 126.878487,191.298141 122.258163,191.295456 
	C108.798431,191.287659 108.798424,191.296280 109.838440,205.886078 
	C111.481812,206.682861 113.116867,208.151001 114.769852,208.171478 
	C129.586227,208.355026 144.406448,208.197327 159.224106,208.317078 
	C169.587234,208.400818 176.052261,214.839188 175.995621,224.666138 
	C175.937897,234.679398 169.593582,240.852005 159.175125,240.914658 
	C149.851395,240.970734 140.527069,240.927200 131.203003,240.927444 
	C124.255653,240.927628 117.308296,240.927505 110.166550,240.927505 
	C110.166550,246.854385 110.166550,252.194061 110.166550,257.729370 
	C128.745407,257.729370 146.883850,258.220245 164.978806,257.545074 
	C175.813828,257.140778 183.512802,250.719788 187.814423,240.690994 
	C191.121307,232.981400 191.620804,224.944748 190.191284,216.700653 
	C187.585754,201.674423 178.028931,192.463226 162.973068,191.560318 
	C154.359573,191.043762 145.683899,191.564331 136.119080,191.388458 
M214.308548,112.074303 
	C212.238388,114.393784 210.168228,116.713257 207.584091,119.528656 
	C201.210007,132.016891 201.302505,144.545563 208.023026,156.761902 
	C212.301285,164.538742 219.235886,168.257355 228.260162,168.028854 
	C236.805176,167.812500 242.120743,163.045822 245.644409,155.876678 
	C247.098328,152.918564 248.043106,149.688828 249.014755,146.519882 
	C250.669357,141.123520 252.001114,135.624084 253.778473,130.270889 
	C255.002029,126.585648 257.381927,123.750580 261.765045,124.016563 
	C266.124664,124.281120 268.596863,127.088974 270.025940,130.944000 
	C273.838379,141.228348 270.147278,149.345901 259.461365,154.488678 
	C259.461365,159.628860 259.461365,164.702271 259.461365,169.996002 
	C268.949738,169.977936 276.325958,166.380081 280.486328,158.383224 
	C287.449890,144.998169 287.687408,130.967407 280.502838,117.685219 
	C272.475403,102.844818 250.926712,103.182518 242.798050,117.950249 
	C240.738800,121.691383 239.421555,125.883545 238.100021,129.977142 
	C236.520065,134.871201 235.560760,139.974030 233.841766,144.812012 
	C232.545013,148.461594 229.835403,151.105453 225.528366,150.675690 
	C221.355698,150.259338 219.191162,147.340561 218.019119,143.609528 
	C215.243088,134.772385 218.292084,127.867996 226.827179,123.569061 
	C226.827179,118.481270 226.827179,113.383774 226.827179,106.844559 
	C222.349380,108.753601 218.656311,110.328087 214.308548,112.074303 
M14.287455,320.504822 
	C14.287455,326.914062 14.287455,333.323303 14.287455,339.734528 
	C41.445454,339.734528 67.696892,339.734528 94.125061,339.734528 
	C94.125061,334.076782 94.125061,328.696869 94.125061,322.803070 
	C84.638062,322.803070 75.555931,322.803070 66.299263,322.803070 
	C66.210457,320.821289 66.327744,319.313568 66.046112,317.884460 
	C64.961594,312.381165 67.496506,309.419434 72.368050,307.200470 
	C78.714363,304.309753 84.776772,300.787445 90.906914,297.437286 
	C92.161369,296.751709 94.093971,295.676208 94.148071,294.694183 
	C94.459427,289.043030 94.299751,283.365936 94.299751,277.040802 
	C83.493210,282.879852 73.618034,288.215668 63.814613,293.512695 
	C63.079567,292.616180 62.728931,292.260315 62.460484,291.850616 
	C55.705338,281.541016 45.499706,277.513062 33.545841,280.448883 
	C22.904257,283.062469 16.085413,291.091156 14.864467,303.052856 
	C14.308382,308.500854 14.457991,314.020905 14.287455,320.504822 
M316.504089,340.001007 
	C337.912903,340.001007 359.321747,340.001007 380.684998,340.001007 
	C380.684998,333.945251 380.684998,328.691620 380.684998,322.884644 
	C371.306458,322.884644 362.230377,322.884644 353.014008,322.884644 
	C352.888214,321.031921 352.911774,319.706238 352.691528,318.422394 
	C351.712982,312.719452 353.860870,309.272675 359.330902,306.930389 
	C365.732971,304.189026 371.751862,300.537079 377.865112,297.150391 
	C379.057281,296.489929 380.743561,295.279205 380.798096,294.248016 
	C381.089508,288.738129 380.935486,283.204681 380.935486,276.952942 
	C370.150909,282.794678 360.266968,288.148590 350.719421,293.320282 
	C349.992432,292.956787 349.793640,292.921783 349.709076,292.804443 
	C349.226593,292.135010 348.745880,291.461823 348.310577,290.761322 
	C342.059448,280.700745 332.412689,278.597778 321.747284,280.197693 
	C311.344879,281.758179 303.731750,288.136108 302.405060,298.450226 
	C300.660858,312.009796 300.983215,325.835205 300.398102,340.001007 
	C306.238647,340.001007 310.872314,340.001007 316.504089,340.001007 
M284.146973,279.464752 
	C283.188904,275.753418 281.344238,278.536926 280.226349,279.127258 
	C271.304962,283.838409 262.464233,288.702209 253.912125,293.348999 
	C253.182632,292.910309 252.993805,292.858185 252.907272,292.734497 
	C252.433197,292.057007 251.972580,291.369354 251.528366,290.671814 
	C245.197372,280.730530 235.601166,278.596375 224.912292,280.200134 
	C214.933624,281.697327 207.330673,287.644012 205.951675,297.539001 
	C204.021393,311.389740 204.140732,325.526062 203.380310,339.593597 
	C231.150558,339.593597 257.515930,339.593597 283.815796,339.593597 
	C283.815796,333.930511 283.815796,328.682434 283.815796,322.867371 
	C274.410889,322.867371 265.346954,322.867371 256.159241,322.867371 
	C256.063416,320.990997 256.142120,319.654114 255.904633,318.376007 
	C254.833771,312.613312 256.990662,308.989838 262.594818,307.019318 
	C265.543243,305.982635 268.059143,303.670410 271.022949,302.730804 
	C282.288544,299.159515 286.549194,291.727966 284.146973,279.464752 
M161.315140,320.173279 
	C160.051514,313.400513 162.295471,309.062775 169.099197,306.405121 
	C175.251358,304.001984 180.911728,300.316315 186.716202,297.066254 
	C187.900177,296.403351 189.579437,295.205261 189.633255,294.180511 
	C189.922348,288.676239 189.769867,283.148834 189.769867,276.905975 
	C178.877518,282.799805 168.980286,288.155182 158.949585,293.582764 
	C158.033951,292.198761 157.401154,291.250153 156.776199,290.296417 
	C150.433502,280.616455 140.944016,278.661713 130.466827,280.199036 
	C120.460312,281.667297 112.810944,287.661438 111.435623,297.482758 
	C109.496994,311.326843 109.770233,325.480621 109.094055,339.579163 
	C136.802460,339.579163 163.147919,339.579163 189.483902,339.579163 
	C189.483902,333.905060 189.483902,328.662292 189.483902,322.997803 
	C181.335754,322.997803 173.536102,323.096313 165.743240,322.910706 
	C164.270142,322.875610 162.823929,321.711365 161.315140,320.173279 
M355.607971,34.174164 
	C363.889404,34.174164 372.170868,34.174164 380.726044,34.174164 
	C380.726044,28.369711 380.726044,23.138535 380.726044,17.668358 
	C354.089874,17.668358 327.716309,17.668358 301.325989,17.668358 
	C301.325989,23.306904 301.325989,28.541624 301.325989,34.283958 
	C312.295288,34.283958 322.885956,34.283958 333.727203,34.283958 
	C333.727203,45.879993 333.727203,56.955307 333.727203,68.751335 
	C322.808990,68.751335 312.091949,68.751335 301.337402,68.751335 
	C301.337402,74.676064 301.337402,79.874786 301.337402,85.235275 
	C328.001221,85.235275 354.255096,85.235275 380.690918,85.235275 
	C380.690918,79.689651 380.690918,74.457413 380.690918,68.514893 
	C369.678040,68.514893 358.967316,68.514893 348.337585,68.514893 
	C348.337585,56.734337 348.337585,45.671265 348.337585,34.174091 
	C350.697113,34.174091 352.669006,34.174091 355.607971,34.174164 
M81.645271,456.165771 
	C62.466454,462.790802 43.236263,469.271881 24.127434,476.092957 
	C11.985018,480.427338 14.620305,477.107178 14.289085,489.557770 
	C14.235944,491.555389 14.473175,493.578094 14.241811,495.549988 
	C13.765439,499.610046 15.149258,501.666901 19.320383,503.057983 
	C42.988541,510.951538 66.533226,519.215149 90.128479,527.327942 
	C91.309319,527.733948 92.569778,527.908386 94.532318,528.361206 
	C94.532318,523.532104 94.336021,519.241272 94.596199,514.978271 
	C94.794144,511.734863 93.543526,510.222504 90.495735,509.298859 
	C85.766380,507.865662 79.371552,507.262604 77.022041,503.943695 
	C74.634354,500.570892 76.210350,494.334900 76.193077,489.352264 
	C76.146980,476.051056 76.177620,476.051666 88.590050,471.922424 
	C89.852882,471.502350 91.220154,471.249695 92.335793,470.580597 
	C93.209534,470.056549 94.344025,469.028412 94.373817,468.189178 
	C94.559814,462.949280 94.467667,457.699524 94.467667,451.907257 
	C89.894989,453.443878 86.147903,454.703064 81.645271,456.165771 
M133.898056,509.585480 
	C152.310440,515.931885 170.722809,522.278259 189.846512,528.869873 
	C189.846512,523.921265 189.530045,520.238647 189.927383,516.634827 
	C190.413300,512.227722 188.851868,510.221497 184.530563,508.914764 
	C171.474289,504.966614 171.498444,504.767914 171.553909,490.907654 
	C171.573151,486.099152 170.078644,479.988556 172.436584,476.839722 
	C174.936722,473.500977 181.192841,472.971161 185.813828,471.228485 
	C186.434509,470.994385 187.275513,471.027374 187.683075,470.611755 
	C188.516724,469.761536 189.689804,468.713562 189.731018,467.706421 
	C189.938431,462.638092 189.826233,457.556702 189.826233,452.704529 
	C189.006317,452.443298 188.819565,452.310577 188.692978,452.353821 
	C163.207581,461.066772 137.712708,469.752838 112.288513,478.641144 
	C111.103470,479.055420 109.907410,481.240601 109.820740,482.668091 
	C109.518555,487.645142 109.852234,492.657959 109.643341,497.644592 
	C109.523155,500.513794 110.713989,501.782196 113.316940,502.603729 
	C119.975578,504.705231 126.562141,507.035034 133.898056,509.585480 
M132.607712,379.165131 
	C126.168381,381.409088 119.764664,383.764282 113.272362,385.842804 
	C110.635551,386.687012 109.509987,387.971832 109.641968,390.825958 
	C109.857162,395.479370 109.887390,400.160278 109.634483,404.809937 
	C109.457474,408.064240 110.758286,409.401154 113.775505,410.422424 
	C135.985703,417.940033 158.126984,425.661224 180.295624,433.301849 
	C183.222885,434.310760 186.182297,435.226379 189.844696,436.418945 
	C189.844696,431.222382 189.684219,426.766510 189.903030,422.329346 
	C190.041122,419.529358 189.088623,418.033508 186.381531,417.285095 
	C182.537781,416.222443 178.632507,415.194977 175.024597,413.555847 
	C173.507324,412.866516 171.773575,410.696716 171.698135,409.125061 
	C171.347183,401.813690 171.664963,394.473083 171.481674,387.149475 
	C171.408218,384.214172 172.720993,383.016602 175.290665,382.298523 
	C179.132553,381.224854 182.956772,380.045593 186.688507,378.644836 
	C187.885132,378.195648 189.597763,376.949890 189.651550,375.988953 
	C189.943573,370.772919 189.790192,365.531952 189.790192,359.535370 
	C170.396683,366.214294 151.882263,372.590485 132.607712,379.165131 
M61.370102,370.965942 
	C50.989098,374.542816 40.595741,378.084442 30.232313,381.711548 
	C25.064161,383.520355 17.893385,384.079224 15.374342,387.764191 
	C12.698785,391.678101 14.647259,398.638794 14.215380,404.241211 
	C13.932666,407.908600 15.393849,409.448853 18.784819,410.590057 
	C38.495861,417.223511 58.123581,424.104340 77.787148,430.879272 
	C83.067741,432.698639 88.375137,434.440216 94.534241,436.507507 
	C94.534241,432.080048 94.165909,428.427551 94.621651,424.880920 
	C95.284424,419.723206 93.137390,417.700012 88.296745,416.309509 
	C76.101372,412.806305 76.119904,412.541260 76.205109,399.707245 
	C76.240204,394.421173 74.836441,388.001160 77.312622,384.195740 
	C79.464188,380.889191 86.162277,380.541473 90.850525,378.884460 
	C91.321419,378.718018 91.921333,378.666870 92.230980,378.342377 
	C93.053719,377.480225 94.354904,376.523499 94.396004,375.558838 
	C94.612144,370.485992 94.497185,365.399109 94.497185,359.538361 
	C83.093536,363.483337 72.606346,367.111267 61.370102,370.965942 
M334.909302,375.416687 
	C328.943481,377.480835 322.958466,379.491486 317.017670,381.625153 
	C311.731232,383.523773 304.458099,384.135437 301.803955,387.931519 
	C299.118927,391.771790 301.212158,398.835632 300.855225,404.464783 
	C300.640015,407.858948 301.767853,409.401855 305.064056,410.507996 
	C326.015320,417.538849 346.884949,424.813049 367.780548,432.009674 
	C371.971313,433.453033 376.158173,434.907654 380.454926,436.394470 
	C382.939850,419.228119 382.939941,419.227844 367.700867,414.126068 
	C367.227966,413.967773 366.757874,413.773621 366.270416,413.691040 
	C363.399689,413.204773 362.729797,411.425110 362.790527,408.701996 
	C362.950012,401.549194 362.981598,394.386627 362.778046,387.236084 
	C362.695709,384.342896 363.815277,383.123718 366.454376,382.364288 
	C371.236298,380.988129 375.926422,379.292908 380.743347,377.701691 
	C380.743347,371.811005 380.743347,366.058380 380.743347,359.658081 
	C365.426270,364.922485 350.536957,370.039856 334.909302,375.416687 
M358.909302,459.416718 
	C343.650391,464.668549 328.404053,469.957214 313.128632,475.160583 
	C300.939392,479.312653 300.923645,479.266479 300.923767,492.406189 
	C300.923767,493.739380 301.073669,495.092957 300.895233,496.401794 
	C300.413208,499.937317 301.786469,501.674042 305.289703,502.856720 
	C329.251831,510.946075 353.130890,519.281433 377.049683,527.499756 
	C378.184021,527.889587 379.441559,527.921021 380.671875,528.124268 
	C382.148651,511.190826 382.148743,511.190552 367.189270,506.228790 
	C366.873230,506.123932 366.553772,506.018402 366.227692,505.956421 
	C363.727112,505.480988 362.722961,504.132019 362.786530,501.448914 
	C362.960114,494.120544 362.965607,486.782379 362.785797,479.454285 
	C362.714874,476.563995 363.843506,475.356262 366.522797,474.607544 
	C371.315125,473.268311 376.000793,471.547363 380.730103,469.986298 
	C380.730103,463.934296 380.730103,458.190338 380.730103,451.965576 
	C373.443512,454.451172 366.545593,456.804199 358.909302,459.416718 
M266.012634,385.992706 
	C267.130157,384.835388 268.041779,383.167664 269.404419,382.618042 
	C273.251160,381.066376 277.331329,380.100372 281.212311,378.622192 
	C282.368561,378.181824 283.951233,376.854309 284.004730,375.861389 
	C284.284576,370.666840 284.135437,365.449219 284.135437,359.711334 
	C282.142395,360.331757 281.043549,360.642059 279.965973,361.013977 
	C260.005463,367.903168 240.035828,374.766205 220.096848,381.717194 
	C214.799377,383.563934 207.556015,384.271667 204.921936,388.075531 
	C202.247253,391.937958 204.410583,398.998627 203.981537,404.622498 
	C203.703812,408.263153 205.378036,409.409821 208.438629,410.452850 
	C232.039658,418.495667 255.582291,426.709808 279.150787,434.848328 
	C280.611115,435.352600 282.137054,435.666840 283.713379,436.091278 
	C285.739044,418.829071 285.739136,418.828766 270.531891,413.985168 
	C270.215240,413.884308 269.892609,413.791138 269.565826,413.734711 
	C266.814728,413.259796 265.851746,411.751984 265.934204,408.877228 
	C266.144165,401.557892 266.004547,394.228546 266.012634,385.992706 
M210.215561,503.271851 
	C234.622772,511.711639 259.029999,520.151428 284.168732,528.844116 
	C284.168732,523.235474 283.993805,518.751343 284.230652,514.289062 
	C284.386749,511.348145 283.094360,510.232635 280.480255,509.479950 
	C275.699158,508.103394 271.016205,506.385956 266.008972,504.716156 
	C266.008972,495.947968 265.885284,487.300873 266.144165,478.665222 
	C266.182404,477.390167 267.784790,475.579681 269.088837,475.034790 
	C272.912720,473.436798 277.030121,472.543793 280.862885,470.963318 
	C282.213440,470.406464 283.913910,468.721619 284.008301,467.444885 
	C284.374023,462.497925 284.157043,457.507874 284.157043,452.055725 
	C282.078369,452.686035 280.503601,453.109619 278.964905,453.638214 
	C258.992249,460.499603 239.018509,467.357941 219.060364,474.261414 
	C214.198196,475.943207 207.441040,476.458466 205.089813,479.914642 
	C202.573471,483.613556 204.507034,490.180237 203.984970,495.444305 
	C203.544144,499.889313 204.999695,502.402374 210.215561,503.271851 
M206.941940,191.320160 
	C205.993500,192.166672 204.279907,192.966766 204.225281,193.867462 
	C203.946625,198.462784 204.096588,203.084091 204.096588,208.288223 
	C206.504028,208.288223 208.291245,208.287888 210.078445,208.288284 
	C224.240494,208.291428 238.405334,208.143555 252.562653,208.404251 
	C256.099182,208.469376 259.973755,209.157959 263.059662,210.771317 
	C269.512939,214.145187 271.934143,222.057083 269.764008,229.996674 
	C267.973175,236.548569 262.302124,240.826019 254.750320,240.882309 
	C239.756027,240.994049 224.760330,240.911819 209.765244,240.933197 
	C207.999298,240.935715 206.233536,241.085495 204.395615,241.170364 
	C204.395615,246.920319 204.395615,252.159134 204.395615,257.637482 
	C205.830322,257.751282 206.959259,257.917480 208.088394,257.918793 
	C223.583328,257.936829 239.078445,257.976349 254.573196,257.920898 
	C270.765839,257.862976 281.554810,249.368607 284.496185,233.468323 
	C288.405731,212.334076 279.614685,189.836517 250.847687,191.173080 
	C236.549637,191.837402 222.195679,191.298752 206.941940,191.320160 
M340.480835,208.298126 
	C343.643768,208.298950 346.807251,208.263184 349.969574,208.307236 
	C360.960266,208.460342 367.106720,214.328186 367.142395,224.665024 
	C367.177551,234.861298 360.820709,240.890198 349.905670,240.915207 
	C335.422852,240.948410 320.939911,240.915863 306.457001,240.935120 
	C304.702759,240.937454 302.948700,241.085892 301.282654,241.162567 
	C301.282654,247.005707 301.282654,252.245956 301.282654,257.640808 
	C320.079224,257.640808 338.542816,258.216705 356.947998,257.428253 
	C368.280121,256.942841 375.781555,249.617279 379.720367,239.117172 
	C382.843170,230.792374 382.910522,222.159103 380.801361,213.562073 
	C377.698303,200.913742 368.510620,192.249985 355.521606,191.731094 
	C337.745819,191.020966 319.921509,191.523453 302.117981,191.533493 
	C301.847046,191.533646 301.576324,191.885254 301.279785,192.090652 
	C301.279785,197.326736 301.279785,202.571533 301.279785,208.298157 
	C314.247955,208.298157 326.867249,208.298157 340.480835,208.298126 
M376.861053,159.225037 
	C383.798126,146.143372 384.161072,132.721802 378.166290,119.341827 
	C374.517548,111.198120 367.730713,107.103355 358.685608,106.915863 
	C349.541870,106.726341 343.019043,110.942108 339.001434,118.917679 
	C337.222687,122.448700 336.032440,126.305817 334.852264,130.101105 
	C333.421173,134.703186 332.504272,139.471848 330.949890,144.026810 
	C329.652618,147.828369 327.216156,150.952576 322.634857,150.663483 
	C317.960693,150.368530 315.778778,147.143738 314.611694,142.955109 
	C312.151855,134.126495 315.188232,127.617493 323.688141,123.589134 
	C323.688141,118.457504 323.688141,113.353004 323.688141,108.011154 
	C316.034393,108.219910 310.199066,111.266373 305.869843,117.086914 
	C297.629578,128.165649 297.939240,147.836075 306.100220,159.032593 
	C314.783997,170.946350 335.307373,172.402298 342.457214,155.735443 
	C343.893036,152.388428 344.979248,148.878937 346.046387,145.389221 
	C347.602112,140.301895 348.789886,135.093796 350.527313,130.073120 
	C351.717560,126.633835 353.994080,123.954788 358.177185,123.991760 
	C362.447815,124.029510 364.846069,126.646584 366.423950,130.192841 
	C370.882538,140.213364 366.759155,149.955627 356.207336,154.349457 
	C356.207336,159.423477 356.207336,164.525742 356.207336,169.999451 
	C364.873108,169.880356 371.609070,166.792877 376.861053,159.225037 
z"/>
<path fill="#FED7D7" opacity="1.000000" stroke="none" 
	d="
M14.287481,320.006531 
	C14.457991,314.020905 14.308382,308.500854 14.864467,303.052856 
	C16.085413,291.091156 22.904257,283.062469 33.545841,280.448883 
	C45.499706,277.513062 55.705338,281.541016 62.460484,291.850616 
	C62.728931,292.260315 63.079567,292.616180 63.814613,293.512695 
	C73.618034,288.215668 83.493210,282.879852 94.299751,277.040802 
	C94.299751,283.365936 94.459427,289.043030 94.148071,294.694183 
	C94.093971,295.676208 92.161369,296.751709 90.906914,297.437286 
	C84.776772,300.787445 78.714363,304.309753 72.368050,307.200470 
	C67.496506,309.419434 64.961594,312.381165 66.046112,317.884460 
	C66.327744,319.313568 66.210457,320.821289 66.299263,322.803070 
	C75.555931,322.803070 84.638062,322.803070 94.125061,322.803070 
	C94.125061,328.696869 94.125061,334.076782 94.125061,339.734528 
	C67.696892,339.734528 41.445454,339.734528 14.287455,339.734528 
	C14.287455,333.323303 14.287455,326.914062 14.287481,320.006531 
M42.121361,297.146088 
	C33.137474,297.217407 29.134314,300.578766 28.346489,309.325317 
	C27.951290,313.712891 28.277588,318.165466 28.277588,322.668945 
	C36.606827,322.668945 44.317497,322.668945 52.210934,322.668945 
	C52.210934,317.549530 52.413845,312.753937 52.158951,307.982788 
	C51.848656,302.174622 48.880703,298.357422 42.121361,297.146088 
z"/>
<path fill="#FED9D9" opacity="1.000000" stroke="none" 
	d="
M316.005035,340.001007 
	C310.872314,340.001007 306.238647,340.001007 300.398102,340.001007 
	C300.983215,325.835205 300.660858,312.009796 302.405060,298.450226 
	C303.731750,288.136108 311.344879,281.758179 321.747284,280.197693 
	C332.412689,278.597778 342.059448,280.700745 348.310577,290.761322 
	C348.745880,291.461823 349.226593,292.135010 349.709076,292.804443 
	C349.793640,292.921783 349.992432,292.956787 350.719421,293.320282 
	C360.266968,288.148590 370.150909,282.794678 380.935486,276.952942 
	C380.935486,283.204681 381.089508,288.738129 380.798096,294.248016 
	C380.743561,295.279205 379.057281,296.489929 377.865112,297.150391 
	C371.751862,300.537079 365.732971,304.189026 359.330902,306.930389 
	C353.860870,309.272675 351.712982,312.719452 352.691528,318.422394 
	C352.911774,319.706238 352.888214,321.031921 353.014008,322.884644 
	C362.230377,322.884644 371.306458,322.884644 380.684998,322.884644 
	C380.684998,328.691620 380.684998,333.945251 380.684998,340.001007 
	C359.321747,340.001007 337.912903,340.001007 316.005035,340.001007 
M337.210144,302.576202 
	C334.248993,297.517487 329.612946,296.543182 324.311798,297.401794 
	C319.036285,298.256256 315.872253,301.680908 315.321960,306.714020 
	C314.754242,311.906250 315.195801,317.208801 315.195801,322.695221 
	C323.135803,322.695221 330.833374,322.695221 339.569275,322.695221 
	C338.891785,315.958710 338.252899,309.605896 337.210144,302.576202 
z"/>
<path fill="#FED9D9" opacity="1.000000" stroke="none" 
	d="
M284.155701,279.874878 
	C286.549194,291.727966 282.288544,299.159515 271.022949,302.730804 
	C268.059143,303.670410 265.543243,305.982635 262.594818,307.019318 
	C256.990662,308.989838 254.833771,312.613312 255.904633,318.376007 
	C256.142120,319.654114 256.063416,320.990997 256.159241,322.867371 
	C265.346954,322.867371 274.410889,322.867371 283.815796,322.867371 
	C283.815796,328.682434 283.815796,333.930511 283.815796,339.593597 
	C257.515930,339.593597 231.150558,339.593597 203.380310,339.593597 
	C204.140732,325.526062 204.021393,311.389740 205.951675,297.539001 
	C207.330673,287.644012 214.933624,281.697327 224.912292,280.200134 
	C235.601166,278.596375 245.197372,280.730530 251.528366,290.671814 
	C251.972580,291.369354 252.433197,292.057007 252.907272,292.734497 
	C252.993805,292.858185 253.182632,292.910309 253.912125,293.348999 
	C262.464233,288.702209 271.304962,283.838409 280.226349,279.127258 
	C281.344238,278.536926 283.188904,275.753418 284.155701,279.874878 
M235.189423,297.999695 
	C226.165985,295.596039 219.825653,298.690674 218.568558,306.920166 
	C217.787033,312.036316 218.423431,317.368988 218.423431,322.632843 
	C226.384277,322.632843 234.085571,322.632843 242.161072,322.632843 
	C242.161072,320.302216 242.180984,318.330658 242.156281,316.359650 
	C242.120895,313.538391 242.218597,310.702271 241.959930,307.900146 
	C241.575546,303.736237 239.972946,300.198975 235.189423,297.999695 
z"/>
<path fill="#FED8D8" opacity="1.000000" stroke="none" 
	d="
M161.340225,320.620728 
	C162.823929,321.711365 164.270142,322.875610 165.743240,322.910706 
	C173.536102,323.096313 181.335754,322.997803 189.483902,322.997803 
	C189.483902,328.662292 189.483902,333.905060 189.483902,339.579163 
	C163.147919,339.579163 136.802460,339.579163 109.094055,339.579163 
	C109.770233,325.480621 109.496994,311.326843 111.435623,297.482758 
	C112.810944,287.661438 120.460312,281.667297 130.466827,280.199036 
	C140.944016,278.661713 150.433502,280.616455 156.776199,290.296417 
	C157.401154,291.250153 158.033951,292.198761 158.949585,293.582764 
	C168.980286,288.155182 178.877518,282.799805 189.769867,276.905975 
	C189.769867,283.148834 189.922348,288.676239 189.633255,294.180511 
	C189.579437,295.205261 187.900177,296.403351 186.716202,297.066254 
	C180.911728,300.316315 175.251358,304.001984 169.099197,306.405121 
	C162.295471,309.062775 160.051514,313.400513 161.340225,320.620728 
M147.601074,308.212280 
	C145.894958,300.325378 142.547714,297.131897 135.933258,297.080505 
	C129.880615,297.033478 125.194557,300.110657 124.285927,305.825348 
	C123.413445,311.312714 123.582268,316.965637 123.285522,322.700043 
	C131.844559,322.700043 139.564621,322.700043 147.730469,322.700043 
	C147.730469,317.964661 147.730469,313.522919 147.601074,308.212280 
z"/>
<path fill="#FED5D5" opacity="1.000000" stroke="none" 
	d="
M355.124451,34.174126 
	C352.669006,34.174091 350.697113,34.174091 348.337585,34.174091 
	C348.337585,45.671265 348.337585,56.734337 348.337585,68.514893 
	C358.967316,68.514893 369.678040,68.514893 380.690918,68.514893 
	C380.690918,74.457413 380.690918,79.689651 380.690918,85.235275 
	C354.255096,85.235275 328.001221,85.235275 301.337402,85.235275 
	C301.337402,79.874786 301.337402,74.676064 301.337402,68.751335 
	C312.091949,68.751335 322.808990,68.751335 333.727203,68.751335 
	C333.727203,56.955307 333.727203,45.879993 333.727203,34.283958 
	C322.885956,34.283958 312.295288,34.283958 301.325989,34.283958 
	C301.325989,28.541624 301.325989,23.306904 301.325989,17.668358 
	C327.716309,17.668358 354.089874,17.668358 380.726044,17.668358 
	C380.726044,23.138535 380.726044,28.369711 380.726044,34.174164 
	C372.170868,34.174164 363.889404,34.174164 355.124451,34.174126 
z"/>
<path fill="#FED7D7" opacity="1.000000" stroke="none" 
	d="
M82.023041,456.064026 
	C86.147903,454.703064 89.894989,453.443878 94.467667,451.907257 
	C94.467667,457.699524 94.559814,462.949280 94.373817,468.189178 
	C94.344025,469.028412 93.209534,470.056549 92.335793,470.580597 
	C91.220154,471.249695 89.852882,471.502350 88.590050,471.922424 
	C76.177620,476.051666 76.146980,476.051056 76.193077,489.352264 
	C76.210350,494.334900 74.634354,500.570892 77.022041,503.943695 
	C79.371552,507.262604 85.766380,507.865662 90.495735,509.298859 
	C93.543526,510.222504 94.794144,511.734863 94.596199,514.978271 
	C94.336021,519.241272 94.532318,523.532104 94.532318,528.361206 
	C92.569778,527.908386 91.309319,527.733948 90.128479,527.327942 
	C66.533226,519.215149 42.988541,510.951538 19.320383,503.057983 
	C15.149258,501.666901 13.765439,499.610046 14.241811,495.549988 
	C14.473175,493.578094 14.235944,491.555389 14.289085,489.557770 
	C14.620305,477.107178 11.985018,480.427338 24.127434,476.092957 
	C43.236263,469.271881 62.466454,462.790802 82.023041,456.064026 
M62.914616,498.865814 
	C62.914616,492.942413 62.914616,487.019012 62.914616,480.251251 
	C52.614799,483.592987 42.957211,486.726349 33.299622,489.859680 
	C33.295403,490.281464 33.291180,490.703217 33.286961,491.124969 
	C43.062008,493.976685 52.837051,496.828430 62.914616,498.865814 
z"/>
<path fill="#FED7D7" opacity="1.000000" stroke="none" 
	d="
M133.537796,509.429504 
	C126.562141,507.035034 119.975578,504.705231 113.316940,502.603729 
	C110.713989,501.782196 109.523155,500.513794 109.643341,497.644592 
	C109.852234,492.657959 109.518555,487.645142 109.820740,482.668091 
	C109.907410,481.240601 111.103470,479.055420 112.288513,478.641144 
	C137.712708,469.752838 163.207581,461.066772 188.692978,452.353821 
	C188.819565,452.310577 189.006317,452.443298 189.826233,452.704529 
	C189.826233,457.556702 189.938431,462.638092 189.731018,467.706421 
	C189.689804,468.713562 188.516724,469.761536 187.683075,470.611755 
	C187.275513,471.027374 186.434509,470.994385 185.813828,471.228485 
	C181.192841,472.971161 174.936722,473.500977 172.436584,476.839722 
	C170.078644,479.988556 171.573151,486.099152 171.553909,490.907654 
	C171.498444,504.767914 171.474289,504.966614 184.530563,508.914764 
	C188.851868,510.221497 190.413300,512.227722 189.927383,516.634827 
	C189.530045,520.238647 189.846512,523.921265 189.846512,528.869873 
	C170.722809,522.278259 152.310440,515.931885 133.537796,509.429504 
M157.658463,499.661774 
	C157.658463,493.467651 157.658463,487.273560 157.658463,480.418701 
	C147.660629,483.660431 138.113586,486.755981 128.566528,489.851532 
	C128.569962,490.190430 128.573380,490.529327 128.576813,490.868225 
	C137.992157,493.866028 147.407501,496.863831 157.658463,499.661774 
z"/>
<path fill="#FED7D7" opacity="1.000000" stroke="none" 
	d="
M132.987762,379.065918 
	C151.882263,372.590485 170.396683,366.214294 189.790192,359.535370 
	C189.790192,365.531952 189.943573,370.772919 189.651550,375.988953 
	C189.597763,376.949890 187.885132,378.195648 186.688507,378.644836 
	C182.956772,380.045593 179.132553,381.224854 175.290665,382.298523 
	C172.720993,383.016602 171.408218,384.214172 171.481674,387.149475 
	C171.664963,394.473083 171.347183,401.813690 171.698135,409.125061 
	C171.773575,410.696716 173.507324,412.866516 175.024597,413.555847 
	C178.632507,415.194977 182.537781,416.222443 186.381531,417.285095 
	C189.088623,418.033508 190.041122,419.529358 189.903030,422.329346 
	C189.684219,426.766510 189.844696,431.222382 189.844696,436.418945 
	C186.182297,435.226379 183.222885,434.310760 180.295624,433.301849 
	C158.126984,425.661224 135.985703,417.940033 113.775505,410.422424 
	C110.758286,409.401154 109.457474,408.064240 109.634483,404.809937 
	C109.887390,400.160278 109.857162,395.479370 109.641968,390.825958 
	C109.509987,387.971832 110.635551,386.687012 113.272362,385.842804 
	C119.764664,383.764282 126.168381,381.409088 132.987762,379.065918 
M148.511749,391.048096 
	C142.009445,393.191162 135.507141,395.334229 129.004837,397.477295 
	C129.028763,397.878571 129.052704,398.279877 129.076630,398.681183 
	C138.568283,401.776001 148.059937,404.870850 157.758972,408.033295 
	C157.758972,401.167480 157.758972,394.845154 157.758972,388.113312 
	C154.605606,389.131470 151.940689,389.991913 148.511749,391.048096 
z"/>
<path fill="#FED7D7" opacity="1.000000" stroke="none" 
	d="
M61.744629,370.852600 
	C72.606346,367.111267 83.093536,363.483337 94.497185,359.538361 
	C94.497185,365.399109 94.612144,370.485992 94.396004,375.558838 
	C94.354904,376.523499 93.053719,377.480225 92.230980,378.342377 
	C91.921333,378.666870 91.321419,378.718018 90.850525,378.884460 
	C86.162277,380.541473 79.464188,380.889191 77.312622,384.195740 
	C74.836441,388.001160 76.240204,394.421173 76.205109,399.707245 
	C76.119904,412.541260 76.101372,412.806305 88.296745,416.309509 
	C93.137390,417.700012 95.284424,419.723206 94.621651,424.880920 
	C94.165909,428.427551 94.534241,432.080048 94.534241,436.507507 
	C88.375137,434.440216 83.067741,432.698639 77.787148,430.879272 
	C58.123581,424.104340 38.495861,417.223511 18.784819,410.590057 
	C15.393849,409.448853 13.932666,407.908600 14.215380,404.241211 
	C14.647259,398.638794 12.698785,391.678101 15.374342,387.764191 
	C17.893385,384.079224 25.064161,383.520355 30.232313,381.711548 
	C40.595741,378.084442 50.989098,374.542816 61.744629,370.852600 
M45.225471,393.708893 
	C41.364422,394.978882 37.503376,396.248840 33.642330,397.518829 
	C33.643494,397.897461 33.644661,398.276123 33.645828,398.654755 
	C43.271996,401.771118 52.898167,404.887451 62.814667,408.097809 
	C62.814667,401.120178 62.814667,394.830994 62.814667,388.075653 
	C56.996128,389.913788 51.475868,391.657715 45.225471,393.708893 
z"/>
<path fill="#FED8D8" opacity="1.000000" stroke="none" 
	d="
M335.278503,375.286957 
	C350.536957,370.039856 365.426270,364.922485 380.743347,359.658081 
	C380.743347,366.058380 380.743347,371.811005 380.743347,377.701691 
	C375.926422,379.292908 371.236298,380.988129 366.454376,382.364288 
	C363.815277,383.123718 362.695709,384.342896 362.778046,387.236084 
	C362.981598,394.386627 362.950012,401.549194 362.790527,408.701996 
	C362.729797,411.425110 363.399689,413.204773 366.270416,413.691040 
	C366.757874,413.773621 367.227966,413.967773 367.700867,414.126068 
	C382.939941,419.227844 382.939850,419.228119 380.454926,436.394470 
	C376.158173,434.907654 371.971313,433.453033 367.780548,432.009674 
	C346.884949,424.813049 326.015320,417.538849 305.064056,410.507996 
	C301.767853,409.401855 300.640015,407.858948 300.855225,404.464783 
	C301.212158,398.835632 299.118927,391.771790 301.803955,387.931519 
	C304.458099,384.135437 311.731232,383.523773 317.017670,381.625153 
	C322.958466,379.491486 328.943481,377.480835 335.278503,375.286957 
M335.697723,403.764282 
	C340.067535,405.149200 344.437317,406.534119 349.066833,408.001343 
	C349.066833,401.093811 349.066833,394.775177 349.066833,388.001221 
	C339.024658,391.298798 329.576080,394.401459 320.127533,397.504120 
	C320.185242,397.905701 320.242950,398.307312 320.300690,398.708923 
	C325.183868,400.298523 330.067047,401.888123 335.697723,403.764282 
z"/>
<path fill="#FED8D8" opacity="1.000000" stroke="none" 
	d="
M359.278503,459.286987 
	C366.545593,456.804199 373.443512,454.451172 380.730103,451.965576 
	C380.730103,458.190338 380.730103,463.934296 380.730103,469.986298 
	C376.000793,471.547363 371.315125,473.268311 366.522797,474.607544 
	C363.843506,475.356262 362.714874,476.563995 362.785797,479.454285 
	C362.965607,486.782379 362.960114,494.120544 362.786530,501.448914 
	C362.722961,504.132019 363.727112,505.480988 366.227692,505.956421 
	C366.553772,506.018402 366.873230,506.123932 367.189270,506.228790 
	C382.148743,511.190552 382.148651,511.190826 380.671875,528.124268 
	C379.441559,527.921021 378.184021,527.889587 377.049683,527.499756 
	C353.130890,519.281433 329.251831,510.946075 305.289703,502.856720 
	C301.786469,501.674042 300.413208,499.937317 300.895233,496.401794 
	C301.073669,495.092957 300.923767,493.739380 300.923767,492.406189 
	C300.923645,479.266479 300.939392,479.312653 313.128632,475.160583 
	C328.404053,469.957214 343.650391,464.668549 359.278503,459.286987 
M349.564636,494.234039 
	C349.564636,489.843994 349.564636,485.453949 349.564636,480.157013 
	C338.919556,483.619659 329.340363,486.735596 319.761139,489.851532 
	C319.805481,490.197998 319.849854,490.544464 319.894196,490.890961 
	C329.539856,494.010162 339.185516,497.129364 349.275421,500.392212 
	C349.402985,498.069153 349.483215,496.607849 349.564636,494.234039 
z"/>
<path fill="#FED8D8" opacity="1.000000" stroke="none" 
	d="
M266.008728,386.447937 
	C266.004547,394.228546 266.144165,401.557892 265.934204,408.877228 
	C265.851746,411.751984 266.814728,413.259796 269.565826,413.734711 
	C269.892609,413.791138 270.215240,413.884308 270.531891,413.985168 
	C285.739136,418.828766 285.739044,418.829071 283.713379,436.091278 
	C282.137054,435.666840 280.611115,435.352600 279.150787,434.848328 
	C255.582291,426.709808 232.039658,418.495667 208.438629,410.452850 
	C205.378036,409.409821 203.703812,408.263153 203.981537,404.622498 
	C204.410583,398.998627 202.247253,391.937958 204.921936,388.075531 
	C207.556015,384.271667 214.799377,383.563934 220.096848,381.717194 
	C240.035828,374.766205 260.005463,367.903168 279.965973,361.013977 
	C281.043549,360.642059 282.142395,360.331757 284.135437,359.711334 
	C284.135437,365.449219 284.284576,370.666840 284.004730,375.861389 
	C283.951233,376.854309 282.368561,378.181824 281.212311,378.622192 
	C277.331329,380.100372 273.251160,381.066376 269.404419,382.618042 
	C268.041779,383.167664 267.130157,384.835388 266.008728,386.447937 
M223.666824,397.682922 
	C225.103531,398.505249 226.452545,399.588043 227.991653,400.106262 
	C236.070068,402.826202 244.196579,405.403320 252.525085,408.100922 
	C252.525085,401.021301 252.525085,394.787170 252.525085,387.957916 
	C242.758499,391.144165 233.472473,394.173645 223.666824,397.682922 
z"/>
<path fill="#FED8D8" opacity="1.000000" stroke="none" 
	d="
M209.831482,503.167297 
	C204.999695,502.402374 203.544144,499.889313 203.984970,495.444305 
	C204.507034,490.180237 202.573471,483.613556 205.089813,479.914642 
	C207.441040,476.458466 214.198196,475.943207 219.060364,474.261414 
	C239.018509,467.357941 258.992249,460.499603 278.964905,453.638214 
	C280.503601,453.109619 282.078369,452.686035 284.157043,452.055725 
	C284.157043,457.507874 284.374023,462.497925 284.008301,467.444885 
	C283.913910,468.721619 282.213440,470.406464 280.862885,470.963318 
	C277.030121,472.543793 272.912720,473.436798 269.088837,475.034790 
	C267.784790,475.579681 266.182404,477.390167 266.144165,478.665222 
	C265.885284,487.300873 266.008972,495.947968 266.008972,504.716156 
	C271.016205,506.385956 275.699158,508.103394 280.480255,509.479950 
	C283.094360,510.232635 284.386749,511.348145 284.230652,514.289062 
	C283.993805,518.751343 284.168732,523.235474 284.168732,528.844116 
	C259.029999,520.151428 234.622772,511.711639 209.831482,503.167297 
M240.777283,496.692474 
	C244.535522,497.835205 248.293762,498.977905 252.521790,500.263458 
	C252.521790,493.484283 252.521790,487.287598 252.521790,480.281219 
	C242.500900,483.529327 232.853439,486.656403 223.205994,489.783478 
	C223.220581,490.135590 223.235184,490.487732 223.249771,490.839874 
	C228.847748,492.690369 234.445724,494.540894 240.777283,496.692474 
z"/>
<path fill="#FED7D7" opacity="1.000000" stroke="none" 
	d="
M207.404480,191.312225 
	C222.195679,191.298752 236.549637,191.837402 250.847687,191.173080 
	C279.614685,189.836517 288.405731,212.334076 284.496185,233.468323 
	C281.554810,249.368607 270.765839,257.862976 254.573196,257.920898 
	C239.078445,257.976349 223.583328,257.936829 208.088394,257.918793 
	C206.959259,257.917480 205.830322,257.751282 204.395615,257.637482 
	C204.395615,252.159134 204.395615,246.920319 204.395615,241.170364 
	C206.233536,241.085495 207.999298,240.935715 209.765244,240.933197 
	C224.760330,240.911819 239.756027,240.994049 254.750320,240.882309 
	C262.302124,240.826019 267.973175,236.548569 269.764008,229.996674 
	C271.934143,222.057083 269.512939,214.145187 263.059662,210.771317 
	C259.973755,209.157959 256.099182,208.469376 252.562653,208.404251 
	C238.405334,208.143555 224.240494,208.291428 210.078445,208.288284 
	C208.291245,208.287888 206.504028,208.288223 204.096588,208.288223 
	C204.096588,203.084091 203.946625,198.462784 204.225281,193.867462 
	C204.279907,192.966766 205.993500,192.166672 207.404480,191.312225 
z"/>
<path fill="#FED8D8" opacity="1.000000" stroke="none" 
	d="
M339.983704,208.298141 
	C326.867249,208.298157 314.247955,208.298157 301.279785,208.298157 
	C301.279785,202.571533 301.279785,197.326736 301.279785,192.090652 
	C301.576324,191.885254 301.847046,191.533646 302.117981,191.533493 
	C319.921509,191.523453 337.745819,191.020966 355.521606,191.731094 
	C368.510620,192.249985 377.698303,200.913742 380.801361,213.562073 
	C382.910522,222.159103 382.843170,230.792374 379.720367,239.117172 
	C375.781555,249.617279 368.280121,256.942841 356.947998,257.428253 
	C338.542816,258.216705 320.079224,257.640808 301.282654,257.640808 
	C301.282654,252.245956 301.282654,247.005707 301.282654,241.162567 
	C302.948700,241.085892 304.702759,240.937454 306.457001,240.935120 
	C320.939911,240.915863 335.422852,240.948410 349.905670,240.915207 
	C360.820709,240.890198 367.177551,234.861298 367.142395,224.665024 
	C367.106720,214.328186 360.960266,208.460342 349.969574,208.307236 
	C346.807251,208.263184 343.643768,208.298950 339.983704,208.298141 
z"/>
<path fill="#FED7D7" opacity="1.000000" stroke="none" 
	d="
M376.650574,159.526230 
	C371.609070,166.792877 364.873108,169.880356 356.207336,169.999451 
	C356.207336,164.525742 356.207336,159.423477 356.207336,154.349457 
	C366.759155,149.955627 370.882538,140.213364 366.423950,130.192841 
	C364.846069,126.646584 362.447815,124.029510 358.177185,123.991760 
	C353.994080,123.954788 351.717560,126.633835 350.527313,130.073120 
	C348.789886,135.093796 347.602112,140.301895 346.046387,145.389221 
	C344.979248,148.878937 343.893036,152.388428 342.457214,155.735443 
	C335.307373,172.402298 314.783997,170.946350 306.100220,159.032593 
	C297.939240,147.836075 297.629578,128.165649 305.869843,117.086914 
	C310.199066,111.266373 316.034393,108.219910 323.688141,108.011154 
	C323.688141,113.353004 323.688141,118.457504 323.688141,123.589134 
	C315.188232,127.617493 312.151855,134.126495 314.611694,142.955109 
	C315.778778,147.143738 317.960693,150.368530 322.634857,150.663483 
	C327.216156,150.952576 329.652618,147.828369 330.949890,144.026810 
	C332.504272,139.471848 333.421173,134.703186 334.852264,130.101105 
	C336.032440,126.305817 337.222687,122.448700 339.001434,118.917679 
	C343.019043,110.942108 349.541870,106.726341 358.685608,106.915863 
	C367.730713,107.103355 374.517548,111.198120 378.166290,119.341827 
	C384.161072,132.721802 383.798126,146.143372 376.650574,159.526230 
z"/>
<path fill="#FED4D4" opacity="1.000000" stroke="none" 
	d="
M214.963257,111.902573 
	C218.656311,110.328087 222.349380,108.753601 226.827179,106.844559 
	C226.827179,113.383774 226.827179,118.481270 226.827179,123.569061 
	C218.292084,127.867996 215.243088,134.772385 218.019119,143.609528 
	C219.191162,147.340561 221.355698,150.259338 225.528366,150.675690 
	C229.835403,151.105453 232.545013,148.461594 233.841766,144.812012 
	C235.560760,139.974030 236.520065,134.871201 238.100021,129.977142 
	C239.421555,125.883545 240.738800,121.691383 242.798050,117.950249 
	C250.926712,103.182518 272.475403,102.844818 280.502838,117.685219 
	C287.687408,130.967407 287.449890,144.998169 280.486328,158.383224 
	C276.325958,166.380081 268.949738,169.977936 259.461365,169.996002 
	C259.461365,164.702271 259.461365,159.628860 259.461365,154.488678 
	C270.147278,149.345901 273.838379,141.228348 270.025940,130.944000 
	C268.596863,127.088974 266.124664,124.281120 261.765045,124.016563 
	C257.381927,123.750580 255.002029,126.585648 253.778473,130.270889 
	C252.001114,135.624084 250.669357,141.123520 249.014755,146.519882 
	C248.043106,149.688828 247.098328,152.918564 245.644409,155.876678 
	C242.120743,163.045822 236.805176,167.812500 228.260162,168.028854 
	C219.235886,168.257355 212.301285,164.538742 208.023026,156.761902 
	C201.302505,144.545563 201.210007,132.016891 208.203354,119.240562 
	C212.888550,118.361153 214.812225,115.903877 214.963257,111.902573 
z"/>
<path fill="#FED5D5" opacity="1.000000" stroke="none" 
	d="
M137.036209,191.617920 
	C145.683899,191.564331 154.359573,191.043762 162.973068,191.560318 
	C178.028931,192.463226 187.585754,201.674423 190.191284,216.700653 
	C191.620804,224.944748 191.121307,232.981400 187.814423,240.690994 
	C183.512802,250.719788 175.813828,257.140778 164.978806,257.545074 
	C146.883850,258.220245 128.745407,257.729370 110.166550,257.729370 
	C110.166550,252.194061 110.166550,246.854385 110.166550,240.927505 
	C117.308296,240.927505 124.255653,240.927628 131.203003,240.927444 
	C140.527069,240.927200 149.851395,240.970734 159.175125,240.914658 
	C169.593582,240.852005 175.937897,234.679398 175.995621,224.666138 
	C176.052261,214.839188 169.587234,208.400818 159.224106,208.317078 
	C144.406448,208.197327 129.586227,208.355026 114.769852,208.171478 
	C113.116867,208.151001 111.481812,206.682861 110.308113,205.439270 
	C114.686882,205.203934 117.452087,203.601898 119.094261,199.974167 
	C120.670731,196.491577 123.331421,195.021652 127.287407,194.673203 
	C130.600998,194.381348 133.791306,192.689743 137.036209,191.617920 
z"/>
<path fill="#FED0D0" opacity="1.000000" stroke="none" 
	d="
M220.057709,17.607952 
	C234.066757,17.534727 248.075790,17.461504 262.542480,17.907413 
	C262.334167,23.599157 261.668182,28.771765 261.002197,33.944374 
	C257.892365,34.104954 254.782516,34.265537 251.385361,34.440956 
	C251.385361,45.855080 251.385361,56.906612 251.385361,68.522797 
	C262.155060,68.522797 272.736389,68.522797 283.745605,68.522797 
	C283.745605,74.287521 283.745605,79.505157 283.745605,85.143127 
	C257.411224,85.143127 231.071487,85.143127 204.406250,85.143127 
	C204.406250,79.840012 204.406250,74.769997 204.406250,68.895828 
	C215.117081,68.895828 225.802628,68.895828 236.819305,68.895828 
	C236.819305,57.043209 236.819305,45.987705 236.819305,34.084976 
	C228.780151,34.084976 220.856750,34.084976 212.504181,33.657913 
	C213.224045,31.063732 214.402527,28.911600 215.515045,26.725880 
	C217.055283,23.699810 218.545853,20.648470 220.057709,17.607952 
z"/>
<path fill="#FED2D2" opacity="1.000000" stroke="none" 
	d="
M62.041695,191.622208 
	C82.830360,189.694122 97.205627,204.795914 95.652122,226.917953 
	C95.041557,235.612640 92.726204,243.645828 86.394135,250.009293 
	C81.886543,254.539215 76.309883,257.502563 69.987053,257.606506 
	C51.701763,257.907257 33.408333,257.712921 14.704165,257.712921 
	C14.704165,252.197311 14.704165,246.829178 14.704165,240.928116 
	C18.599216,240.928116 22.223394,240.928558 25.847574,240.928024 
	C38.664181,240.926102 51.481228,240.988464 64.297249,240.900848 
	C74.166420,240.833389 80.808472,234.257462 80.812126,224.781403 
	C80.815887,215.030426 74.569794,208.474243 64.598549,208.344818 
	C49.786964,208.152557 34.970879,208.326065 20.157665,208.215729 
	C18.329943,208.202118 16.508068,207.403259 15.123648,206.504761 
	C20.948662,205.361298 26.339289,204.080521 31.717110,204.132217 
	C41.541264,204.226639 50.182453,200.690521 58.647079,196.501801 
	C60.202602,195.732056 60.931332,193.291534 62.041695,191.622208 
z"/>
<path fill="#FDC6C6" opacity="1.000000" stroke="none" 
	d="
M27.802605,133.007690 
	C27.875124,136.293427 28.031269,139.579956 28.000322,142.864700 
	C27.955282,147.645355 31.234316,149.421875 35.008503,150.452179 
	C38.982002,151.536880 42.078053,149.468964 43.441761,146.053040 
	C45.444584,141.036240 46.650082,135.701096 48.769341,130.191528 
	C51.927788,129.040665 54.698006,128.549149 57.060955,127.292076 
	C63.579212,123.824417 69.981819,120.127846 76.316940,116.332794 
	C79.050194,114.695442 81.504509,112.592461 84.085541,110.701004 
	C92.170967,115.922432 94.513672,124.106766 95.363396,132.949722 
	C96.324524,142.952118 95.248390,152.612396 89.077118,160.998260 
	C84.396904,167.358002 77.787476,169.828461 69.339363,170.078842 
	C69.339363,165.061661 69.168747,160.456512 69.477455,155.883743 
	C69.542381,154.922089 71.239227,153.545517 72.402443,153.264771 
	C83.434509,150.602158 83.463631,130.938507 76.847176,125.847488 
	C72.441032,122.457184 66.906189,123.469650 64.533379,129.017761 
	C62.523407,133.717453 61.515163,138.840500 59.980732,143.750275 
	C58.744404,147.706207 57.679733,151.753677 56.015568,155.529892 
	C52.857872,162.695114 47.653385,167.417862 39.406185,167.995407 
	C30.414354,168.625107 23.580524,164.952667 18.674536,157.582108 
	C14.055723,150.642990 13.001328,142.837891 14.102613,134.348083 
	C19.054798,133.661102 23.428701,133.334396 27.802605,133.007690 
z"/>
<path fill="#FDC0C0" opacity="1.000000" stroke="none" 
	d="
M125.063217,17.602688 
	C145.523346,17.489805 165.983658,17.326904 186.443161,17.397346 
	C187.582932,17.401272 189.593353,19.254406 189.696228,20.383692 
	C190.084656,24.647129 189.852264,28.967125 189.852264,34.184158 
	C184.206284,34.184158 178.967239,34.185001 173.728195,34.183895 
	C169.401779,34.182983 165.070190,34.308247 160.750732,34.133873 
	C157.704758,34.010918 156.644302,35.220734 156.691666,38.208046 
	C156.797165,44.860378 156.663040,51.516514 156.149017,58.646641 
	C149.114120,67.812508 142.556793,76.502831 135.999481,85.193153 
	C127.555000,85.193153 119.110519,85.193153 109.832039,85.193153 
	C109.832039,80.342407 109.623154,75.598206 110.025848,70.906494 
	C110.097786,70.068359 112.684448,68.867622 114.140137,68.823212 
	C121.952560,68.584862 129.781052,68.456123 137.590591,68.706985 
	C141.838715,68.843445 143.018402,67.232315 142.892899,63.198097 
	C142.644699,55.220818 142.667221,47.225071 142.908691,39.246971 
	C143.024490,35.420670 141.945404,33.939869 137.886612,34.068295 
	C129.578201,34.331184 121.254204,34.101570 112.562897,33.682526 
	C115.608269,29.700500 119.125504,26.196918 122.394859,22.475555 
	C123.587700,21.117802 124.190979,19.242098 125.063217,17.602688 
z"/>
<path fill="#FDCCCC" opacity="1.000000" stroke="none" 
	d="
M132.609177,118.890182 
	C133.315033,122.040779 132.483521,123.796654 129.141174,125.300705 
	C121.461113,128.756699 120.318985,143.927734 127.016312,149.070755 
	C130.626175,151.842819 135.476288,151.332275 137.858200,147.257324 
	C139.748825,144.022858 140.750320,140.239487 141.941269,136.632034 
	C143.760071,131.122787 144.828461,125.291130 147.234268,120.065399 
	C152.783463,108.011772 163.866776,104.001816 176.661377,109.467133 
	C175.659546,112.849030 174.582214,115.804344 172.941833,118.404434 
	C171.659027,120.437737 169.677902,122.030457 168.007050,123.818932 
	C163.321838,123.731842 160.495987,126.340836 159.120636,130.469894 
	C157.546967,135.194321 156.438293,140.071579 154.967865,144.833099 
	C153.793610,148.635544 152.681961,152.503418 151.021378,156.101746 
	C143.039169,173.398529 121.679482,170.305862 114.069038,157.873978 
	C109.314690,150.107620 108.126564,141.756561 109.400230,132.424591 
	C112.429138,130.252975 114.935165,128.436951 117.615623,126.931488 
	C122.559441,124.154846 127.605637,121.560493 132.609177,118.890182 
z"/>
<path fill="#FDB3B3" opacity="1.000000" stroke="none" 
	d="
M18.055290,17.611662 
	C36.730022,17.543009 55.404751,17.474356 74.523239,17.841455 
	C73.701904,20.293888 72.598381,22.437456 71.136192,24.299349 
	C68.540031,27.605202 65.726364,30.740232 63.003685,33.946728 
	C62.419365,34.765907 61.835045,35.585091 60.810669,36.788845 
	C58.204407,39.177048 56.138588,41.306152 53.840385,43.144802 
	C51.984741,44.629387 49.848835,45.763668 47.837261,47.053356 
	C47.744904,44.082832 47.485001,41.105412 47.606823,38.143700 
	C47.731224,35.119282 46.555046,34.049942 43.541744,34.101830 
	C35.579403,34.238918 27.606808,33.950985 19.650763,34.212112 
	C15.594912,34.345226 13.769756,33.143890 14.254998,28.917294 
	C14.518636,26.620935 14.379702,24.278357 14.805216,21.452053 
	C16.143818,19.835539 17.099554,18.723600 18.055290,17.611662 
z"/>
<path fill="#FED0D0" opacity="1.000000" stroke="none" 
	d="
M168.347214,123.933884 
	C169.677902,122.030457 171.659027,120.437737 172.941833,118.404434 
	C174.582214,115.804344 175.659546,112.849030 176.992355,109.680222 
	C184.429840,112.575005 187.803955,118.983208 189.544556,126.296455 
	C192.031982,136.747452 191.730774,147.171326 186.841721,156.958252 
	C182.525864,165.597733 175.248016,169.824127 164.749054,170.019958 
	C164.749054,165.198593 164.541733,160.591980 164.902756,156.030350 
	C164.987274,154.962509 166.838547,153.650665 168.147308,153.128143 
	C174.799622,150.472183 176.583145,144.869247 176.661880,138.641632 
	C176.739563,132.495926 175.676163,126.536331 168.347214,123.933884 
z"/>
<path fill="#FDC6C6" opacity="1.000000" stroke="none" 
	d="
M136.457306,85.298203 
	C142.556793,76.502831 149.114120,67.812508 156.037415,59.038078 
	C156.572784,61.917362 156.742172,64.880753 156.959869,68.689293 
	C163.840302,68.689293 170.575745,68.693565 177.311188,68.688377 
	C190.441177,68.678261 190.336029,68.672813 189.934784,81.631264 
	C189.838287,84.747322 188.715424,85.631760 185.805161,85.607903 
	C169.509018,85.474358 153.211899,85.458984 136.457306,85.298203 
z"/>
<path fill="#FDC0C0" opacity="1.000000" stroke="none" 
	d="
M63.005989,68.966789 
	C73.109520,68.966789 83.213058,68.966789 93.653015,68.966789 
	C93.653015,74.422562 93.653015,79.502708 93.653015,85.372688 
	C75.443512,85.372688 57.226517,85.372688 38.598930,84.972595 
	C39.171337,83.530235 39.964729,82.095543 41.169956,81.513222 
	C46.551926,78.912834 52.157032,76.759377 57.456985,74.011398 
	C59.601891,72.899277 61.173496,70.681450 63.005989,68.966789 
z"/>
<path fill="#FDB3B3" opacity="1.000000" stroke="none" 
	d="
M62.701866,68.681656 
	C61.173496,70.681450 59.601891,72.899277 57.456985,74.011398 
	C52.157032,76.759377 46.551926,78.912834 41.169956,81.513222 
	C39.964729,82.095543 39.171337,83.530235 38.148483,84.874840 
	C31.162132,85.304817 24.213120,85.558907 17.271919,85.420685 
	C16.257442,85.400482 15.274183,83.516289 14.296209,82.476044 
	C14.210384,82.384750 14.278640,82.154152 14.264407,81.989204 
	C13.119631,68.722717 13.119548,68.723045 26.500959,68.710831 
	C31.970272,68.705833 37.442825,68.584328 42.907616,68.738541 
	C45.927242,68.823761 47.729408,67.980232 48.057793,64.237244 
	C52.718559,62.205994 56.888554,60.593174 61.058548,58.980354 
	C61.504944,62.119083 61.951344,65.257805 62.701866,68.681656 
z"/>
<path fill="#FDCCCC" opacity="1.000000" stroke="none" 
	d="
M61.582558,191.507965 
	C60.931332,193.291534 60.202602,195.732056 58.647079,196.501801 
	C50.182453,200.690521 41.541264,204.226639 31.717110,204.132217 
	C26.339289,204.080521 20.948662,205.361298 15.094764,206.051682 
	C14.516412,202.434479 14.503166,198.800598 14.268719,195.181030 
	C14.065370,192.041611 15.573201,191.236618 18.436333,191.259781 
	C32.664791,191.374939 46.894287,191.361710 61.582558,191.507965 
z"/>
<path fill="#FDC0C0" opacity="1.000000" stroke="none" 
	d="
M27.938560,132.674072 
	C23.428701,133.334396 19.054798,133.661102 14.241820,133.984772 
	C14.371032,118.710258 24.825994,107.218781 37.525898,108.606514 
	C37.525898,112.808136 37.686802,117.090408 37.418343,121.345596 
	C37.346809,122.479439 36.045189,123.605782 35.160431,124.604568 
	C32.842018,127.221794 30.442009,129.766724 27.938560,132.674072 
z"/>
<path fill="#FDB6B6" opacity="1.000000" stroke="none" 
	d="
M63.468033,34.014046 
	C65.726364,30.740232 68.540031,27.605202 71.136192,24.299349 
	C72.598381,22.437456 73.701904,20.293888 74.980125,17.945267 
	C80.147354,17.513659 85.301865,17.431204 90.455368,17.306763 
	C92.878464,17.248255 94.130821,18.116617 94.033264,20.796827 
	C93.882652,24.934679 93.993576,29.082050 93.993576,34.081360 
	C83.739578,34.081360 73.835976,34.081360 63.468033,34.014046 
z"/>
<path fill="#FDC0C0" opacity="1.000000" stroke="none" 
	d="
M83.863174,110.436501 
	C81.504509,112.592461 79.050194,114.695442 76.316940,116.332794 
	C69.981819,120.127846 63.579212,123.824417 57.060955,127.292076 
	C54.698006,128.549149 51.927788,129.040665 48.906357,129.851837 
	C49.676239,126.396187 50.537617,122.797173 52.151123,119.574753 
	C58.450653,106.993591 71.199005,103.277283 83.863174,110.436501 
z"/>
<path fill="#FED4D4" opacity="1.000000" stroke="none" 
	d="
M261.465332,34.020824 
	C261.668182,28.771765 262.334167,23.599157 262.998352,18.018486 
	C269.777374,17.610420 276.558197,17.610420 283.748840,17.610420 
	C283.748840,23.005873 283.748840,28.208157 283.748840,34.097279 
	C276.439880,34.097279 269.184204,34.097279 261.465332,34.020824 
z"/>
<path fill="#FDC6C6" opacity="1.000000" stroke="none" 
	d="
M132.691498,118.508575 
	C127.605637,121.560493 122.559441,124.154846 117.615623,126.931488 
	C114.935165,128.436951 112.429138,130.252975 109.494110,131.968735 
	C110.529213,117.763367 120.312538,107.715477 132.773804,108.419952 
	C132.773804,111.624580 132.773804,114.875778 132.691498,118.508575 
z"/>
<path fill="#FDB6B6" opacity="1.000000" stroke="none" 
	d="
M61.129288,58.517445 
	C56.888554,60.593174 52.718559,62.205994 48.174698,63.878563 
	C47.761257,58.615749 47.721687,53.293186 47.759689,47.511990 
	C49.848835,45.763668 51.984741,44.629387 53.840385,43.144802 
	C56.138588,41.306152 58.204407,39.177048 60.703606,37.085037 
	C61.091068,44.015949 61.145550,51.035244 61.129288,58.517445 
z"/>
<path fill="#FDC6C6" opacity="1.000000" stroke="none" 
	d="
M219.599213,17.493969 
	C218.545853,20.648470 217.055283,23.699810 215.515045,26.725880 
	C214.402527,28.911600 213.224045,31.063732 212.040222,33.588753 
	C209.577164,33.946659 207.148880,33.946659 204.388840,33.946659 
	C204.388840,28.464703 204.388840,23.276634 204.388840,17.379988 
	C209.378418,17.379988 214.259567,17.379988 219.599213,17.493969 
z"/>
<path fill="#FED0D0" opacity="1.000000" stroke="none" 
	d="
M136.577637,191.503189 
	C133.791306,192.689743 130.600998,194.381348 127.287407,194.673203 
	C123.331421,195.021652 120.670731,196.491577 119.094261,199.974167 
	C117.452087,203.601898 114.686882,205.203934 110.375626,204.995483 
	C108.798424,191.296280 108.798431,191.287659 122.258163,191.295456 
	C126.878487,191.298141 131.498779,191.355865 136.577637,191.503189 
z"/>
<path fill="#FDB6B6" opacity="1.000000" stroke="none" 
	d="
M124.604279,17.491993 
	C124.190979,19.242098 123.587700,21.117802 122.394859,22.475555 
	C119.125504,26.196918 115.608269,29.700500 112.098358,33.618980 
	C111.257736,33.518024 109.873947,33.112694 109.856384,32.654953 
	C109.684937,28.185717 109.586540,23.697203 109.888756,19.242765 
	C109.938110,18.515253 112.012863,17.436848 113.201797,17.366091 
	C116.836464,17.149784 120.495674,17.345730 124.604279,17.491993 
z"/>
<path fill="#FED0D0" opacity="1.000000" stroke="none" 
	d="
M214.635895,111.988441 
	C214.812225,115.903877 212.888550,118.361153 208.460342,118.992599 
	C210.168228,116.713257 212.238388,114.393784 214.635895,111.988441 
z"/>
<path fill="#FDAAAA" opacity="1.000000" stroke="none" 
	d="
M17.699562,17.511814 
	C17.099554,18.723600 16.143818,19.835539 14.895050,21.001041 
	C14.000360,18.699602 14.437191,17.126268 17.699562,17.511814 
z"/>
<path fill="#FA4848" opacity="1.000000" stroke="none" 
	d="
M42.522053,297.207336 
	C48.880703,298.357422 51.848656,302.174622 52.158951,307.982788 
	C52.413845,312.753937 52.210934,317.549530 52.210934,322.668945 
	C44.317497,322.668945 36.606827,322.668945 28.277588,322.668945 
	C28.277588,318.165466 27.951290,313.712891 28.346489,309.325317 
	C29.134314,300.578766 33.137474,297.217407 42.522053,297.207336 
z"/>
<path fill="#FA4545" opacity="1.000000" stroke="none" 
	d="
M337.412079,302.914612 
	C338.252899,309.605896 338.891785,315.958710 339.569275,322.695221 
	C330.833374,322.695221 323.135803,322.695221 315.195801,322.695221 
	C315.195801,317.208801 314.754242,311.906250 315.321960,306.714020 
	C315.872253,301.680908 319.036285,298.256256 324.311798,297.401794 
	C329.612946,296.543182 334.248993,297.517487 337.412079,302.914612 
z"/>
<path fill="#FA4545" opacity="1.000000" stroke="none" 
	d="
M235.558746,298.129974 
	C239.972946,300.198975 241.575546,303.736237 241.959930,307.900146 
	C242.218597,310.702271 242.120895,313.538391 242.156281,316.359650 
	C242.180984,318.330658 242.161072,320.302216 242.161072,322.632843 
	C234.085571,322.632843 226.384277,322.632843 218.423431,322.632843 
	C218.423431,317.368988 217.787033,312.036316 218.568558,306.920166 
	C219.825653,298.690674 226.165985,295.596039 235.558746,298.129974 
z"/>
<path fill="#FA4848" opacity="1.000000" stroke="none" 
	d="
M147.665771,308.646729 
	C147.730469,313.522919 147.730469,317.964661 147.730469,322.700043 
	C139.564621,322.700043 131.844559,322.700043 123.285522,322.700043 
	C123.582268,316.965637 123.413445,311.312714 124.285927,305.825348 
	C125.194557,300.110657 129.880615,297.033478 135.933258,297.080505 
	C142.547714,297.131897 145.894958,300.325378 147.665771,308.646729 
z"/>
<path fill="#FA4848" opacity="1.000000" stroke="none" 
	d="
M62.763359,499.272980 
	C52.837051,496.828430 43.062008,493.976685 33.286961,491.124969 
	C33.291180,490.703217 33.295403,490.281464 33.299622,489.859680 
	C42.957211,486.726349 52.614799,483.592987 62.914616,480.251251 
	C62.914616,487.019012 62.914616,492.942413 62.763359,499.272980 
z"/>
<path fill="#FA4848" opacity="1.000000" stroke="none" 
	d="
M157.240662,499.761719 
	C147.407501,496.863831 137.992157,493.866028 128.576813,490.868225 
	C128.573380,490.529327 128.569962,490.190430 128.566528,489.851532 
	C138.113586,486.755981 147.660629,483.660431 157.658463,480.418701 
	C157.658463,487.273560 157.658463,493.467651 157.240662,499.761719 
z"/>
<path fill="#FA4848" opacity="1.000000" stroke="none" 
	d="
M148.893768,390.950226 
	C151.940689,389.991913 154.605606,389.131470 157.758972,388.113312 
	C157.758972,394.845154 157.758972,401.167480 157.758972,408.033295 
	C148.059937,404.870850 138.568283,401.776001 129.076630,398.681183 
	C129.052704,398.279877 129.028763,397.878571 129.004837,397.477295 
	C135.507141,395.334229 142.009445,393.191162 148.893768,390.950226 
z"/>
<path fill="#FA4848" opacity="1.000000" stroke="none" 
	d="
M45.590538,393.555237 
	C51.475868,391.657715 56.996128,389.913788 62.814667,388.075653 
	C62.814667,394.830994 62.814667,401.120178 62.814667,408.097809 
	C52.898167,404.887451 43.271996,401.771118 33.645828,398.654755 
	C33.644661,398.276123 33.643494,397.897461 33.642330,397.518829 
	C37.503376,396.248840 41.364422,394.978882 45.590538,393.555237 
z"/>
<path fill="#FA4C4C" opacity="1.000000" stroke="none" 
	d="
M335.323975,403.621002 
	C330.067047,401.888123 325.183868,400.298523 320.300690,398.708923 
	C320.242950,398.307312 320.185242,397.905701 320.127533,397.504120 
	C329.576080,394.401459 339.024658,391.298798 349.066833,388.001221 
	C349.066833,394.775177 349.066833,401.093811 349.066833,408.001343 
	C344.437317,406.534119 340.067535,405.149200 335.323975,403.621002 
z"/>
<path fill="#FA4C4C" opacity="1.000000" stroke="none" 
	d="
M349.564056,494.690308 
	C349.483215,496.607849 349.402985,498.069153 349.275421,500.392212 
	C339.185516,497.129364 329.539856,494.010162 319.894196,490.890961 
	C319.849854,490.544464 319.805481,490.197998 319.761139,489.851532 
	C329.340363,486.735596 338.919556,483.619659 349.564636,480.157013 
	C349.564636,485.453949 349.564636,489.843994 349.564056,494.690308 
z"/>
<path fill="#FA4C4C" opacity="1.000000" stroke="none" 
	d="
M223.926636,397.442993 
	C233.472473,394.173645 242.758499,391.144165 252.525085,387.957916 
	C252.525085,394.787170 252.525085,401.021301 252.525085,408.100922 
	C244.196579,405.403320 236.070068,402.826202 227.991653,400.106262 
	C226.452545,399.588043 225.103531,398.505249 223.926636,397.442993 
z"/>
<path fill="#FA4C4C" opacity="1.000000" stroke="none" 
	d="
M240.410492,496.541931 
	C234.445724,494.540894 228.847748,492.690369 223.249771,490.839874 
	C223.235184,490.487732 223.220581,490.135590 223.205994,489.783478 
	C232.853439,486.656403 242.500900,483.529327 252.521790,480.281219 
	C252.521790,487.287598 252.521790,493.484283 252.521790,500.263458 
	C248.293762,498.977905 244.535522,497.835205 240.410492,496.541931 
z"/>
</svg>